<svg id="visual" viewBox="0 0 860 100" width="860" height="100" xmlns="http://www.w3.org/2000/svg" xmlns:xlink="http://www.w3.org/1999/xlink" version="1.1"><rect x="0" y="0" width="860" height="100" fill="#273036"></rect><path d="M0 31L20.5 26.5C41 22 82 13 123 15.2C164 17.3 205 30.7 246 35.7C287 40.7 328 37.3 368.8 31.8C409.7 26.3 450.3 18.7 491.2 18.8C532 19 573 27 614 28.8C655 30.7 696 26.3 737 24.7C778 23 819 24 839.5 24.5L860 25L860 101L839.5 101C819 101 778 101 737 101C696 101 655 101 614 101C573 101 532 101 491.2 101C450.3 101 409.7 101 368.8 101C328 101 287 101 246 101C205 101 164 101 123 101C82 101 41 101 20.5 101L0 101Z" fill="#ff578c"></path><path d="M0 42L20.5 45.3C41 48.7 82 55.3 123 58C164 60.7 205 59.3 246 52.8C287 46.3 328 34.7 368.8 35.3C409.7 36 450.3 49 491.2 55.5C532 62 573 62 614 60.3C655 58.7 696 55.3 737 54.7C778 54 819 56 839.5 57L860 58L860 101L839.5 101C819 101 778 101 737 101C696 101 655 101 614 101C573 101 532 101 491.2 101C450.3 101 409.7 101 368.8 101C328 101 287 101 246 101C205 101 164 101 123 101C82 101 41 101 20.5 101L0 101Z" fill="#ff4d84"></path><path d="M0 63L20.5 63.2C41 63.3 82 63.7 123 66.3C164 69 205 74 246 69.3C287 64.7 328 50.3 368.8 46.5C409.7 42.7 450.3 49.3 491.2 55.7C532 62 573 68 614 68.3C655 68.7 696 63.3 737 61.7C778 60 819 62 839.5 63L860 64L860 101L839.5 101C819 101 778 101 737 101C696 101 655 101 614 101C573 101 532 101 491.2 101C450.3 101 409.7 101 368.8 101C328 101 287 101 246 101C205 101 164 101 123 101C82 101 41 101 20.5 101L0 101Z" fill="#ff417b"></path><path d="M0 78L20.5 77.2C41 76.3 82 74.7 123 74.2C164 73.7 205 74.3 246 70.8C287 67.3 328 59.7 368.8 58.5C409.7 57.3 450.3 62.7 491.2 66.7C532 70.7 573 73.3 614 71.7C655 70 696 64 737 61.7C778 59.3 819 60.7 839.5 61.3L860 62L860 101L839.5 101C819 101 778 101 737 101C696 101 655 101 614 101C573 101 532 101 491.2 101C450.3 101 409.7 101 368.8 101C328 101 287 101 246 101C205 101 164 101 123 101C82 101 41 101 20.5 101L0 101Z" fill="#ff3472"></path><path d="M0 83L20.5 81C41 79 82 75 123 77.3C164 79.7 205 88.3 246 88.8C287 89.3 328 81.7 368.8 76.8C409.7 72 450.3 70 491.2 71.8C532 73.7 573 79.3 614 79.5C655 79.7 696 74.3 737 73.7C778 73 819 77 839.5 79L860 81L860 101L839.5 101C819 101 778 101 737 101C696 101 655 101 614 101C573 101 532 101 491.2 101C450.3 101 409.7 101 368.8 101C328 101 287 101 246 101C205 101 164 101 123 101C82 101 41 101 20.5 101L0 101Z" fill="#ff2368"></path></svg>