<svg id="visual" viewBox="0 0 960 540" width="960" height="540" xmlns="http://www.w3.org/2000/svg" xmlns:xlink="http://www.w3.org/1999/xlink" version="1.1"><path d="M0 381L22.8 379.3C45.7 377.7 91.3 374.3 137 365.7C182.7 357 228.3 343 274 344.8C319.7 346.7 365.3 364.3 411.2 375C457 385.7 503 389.3 548.8 390.8C594.7 392.3 640.3 391.7 686 379.5C731.7 367.3 777.3 343.7 823 333C868.7 322.3 914.3 324.7 937.2 325.8L960 327L960 541L937.2 541C914.3 541 868.7 541 823 541C777.3 541 731.7 541 686 541C640.3 541 594.7 541 548.8 541C503 541 457 541 411.2 541C365.3 541 319.7 541 274 541C228.3 541 182.7 541 137 541C91.3 541 45.7 541 22.8 541L0 541Z" fill="#ff7bac"></path><path d="M0 354L22.8 364.3C45.7 374.7 91.3 395.3 137 407.2C182.7 419 228.3 422 274 419.7C319.7 417.3 365.3 409.7 411.2 399.2C457 388.7 503 375.3 548.8 369.3C594.7 363.3 640.3 364.7 686 371.2C731.7 377.7 777.3 389.3 823 394.7C868.7 400 914.3 399 937.2 398.5L960 398L960 541L937.2 541C914.3 541 868.7 541 823 541C777.3 541 731.7 541 686 541C640.3 541 594.7 541 548.8 541C503 541 457 541 411.2 541C365.3 541 319.7 541 274 541C228.3 541 182.7 541 137 541C91.3 541 45.7 541 22.8 541L0 541Z" fill="#ff6a9d"></path><path d="M0 418L22.8 419.8C45.7 421.7 91.3 425.3 137 429.5C182.7 433.7 228.3 438.3 274 437.7C319.7 437 365.3 431 411.2 432C457 433 503 441 548.8 446.7C594.7 452.3 640.3 455.7 686 454.3C731.7 453 777.3 447 823 437C868.7 427 914.3 413 937.2 406L960 399L960 541L937.2 541C914.3 541 868.7 541 823 541C777.3 541 731.7 541 686 541C640.3 541 594.7 541 548.8 541C503 541 457 541 411.2 541C365.3 541 319.7 541 274 541C228.3 541 182.7 541 137 541C91.3 541 45.7 541 22.8 541L0 541Z" fill="#ff578c"></path><path d="M0 438L22.8 438C45.7 438 91.3 438 137 445C182.7 452 228.3 466 274 467C319.7 468 365.3 456 411.2 455.7C457 455.3 503 466.7 548.8 470C594.7 473.3 640.3 468.7 686 468.8C731.7 469 777.3 474 823 470.2C868.7 466.3 914.3 453.7 937.2 447.3L960 441L960 541L937.2 541C914.3 541 868.7 541 823 541C777.3 541 731.7 541 686 541C640.3 541 594.7 541 548.8 541C503 541 457 541 411.2 541C365.3 541 319.7 541 274 541C228.3 541 182.7 541 137 541C91.3 541 45.7 541 22.8 541L0 541Z" fill="#ff417b"></path><path d="M0 493L22.8 490.3C45.7 487.7 91.3 482.3 137 484.7C182.7 487 228.3 497 274 498.3C319.7 499.7 365.3 492.3 411.2 490.7C457 489 503 493 548.8 490.8C594.7 488.7 640.3 480.3 686 478.3C731.7 476.3 777.3 480.7 823 483.3C868.7 486 914.3 487 937.2 487.5L960 488L960 541L937.2 541C914.3 541 868.7 541 823 541C777.3 541 731.7 541 686 541C640.3 541 594.7 541 548.8 541C503 541 457 541 411.2 541C365.3 541 319.7 541 274 541C228.3 541 182.7 541 137 541C91.3 541 45.7 541 22.8 541L0 541Z" fill="#ff2368"></path></svg>